# xmcd
#
# Track frame offsets:
# 150
# 13426
# 26038
# 39162
# 52203
# 67169
# 81944
# 97060
# 109336
# 125081
# 143065
# 159479
# 172207
# 185155
# 198870
# 209543
# 222901
# 237028
# 252650
# 266756
# 279962
# 294240
#
# Disc length: 4141 seconds
#
# Revision: 1
# Processed by: cddbd v1.5.2PL0 Copyright (c) Steve Scherf et al.
# Submitted via: Axialis_AX_CDPlayer 2.6
#
DISCID=62102b16
DTITLE=Elmore James - The Final Sessions - New York February 1963
DYEAR=2006
DGENRE=blues
TTITLE0=My Baby's Gone
TTITLE1=Find My Kinda Woman
TTITLE2=Look On Yonder Wall (Look Up On The Wall)
TTITLE3=Dust My Broom
TTITLE4=It Hurts Me Too
TTITLE5=Pickin' The Blues (Manhattan Slide)
TTITLE6=Everyday I Have The Blues
TTITLE7=I Have A Right To Love My Baby
TTITLE8=Twelve Year Old Boy
TTITLE9=Got To Move (She's Got To Go)
TTITLE10=I Gotta Go Now
TTITLE11=Talk To Me Baby
TTITLE12=Make My Dreams Come True
TTITLE13=Hand In Hand
TTITLE14=Can't Stop Loving My Baby
TTITLE15=Dust My Broom
TTITLE16=Elmore Jumps One (Up Jumps Elmore) - Black Snake Slide
TTITLE17=I Believe
TTITLE18=Hand In Hand
TTITLE19=Find My Kind Of Woman (Take 1)
TTITLE20=Hand In Hand (Take 3)
TTITLE21=Back In Mississippi (Conversation)
EXTD=
EXTT0=
EXTT1=
EXTT2=
EXTT3=
EXTT4=
EXTT5=
EXTT6=
EXTT7=
EXTT8=
EXTT9=
EXTT10=
EXTT11=
EXTT12=
EXTT13=
EXTT14=
EXTT15=
EXTT16=
EXTT17=
EXTT18=
EXTT19=
EXTT20=
EXTT21=
PLAYORDER=
